<?xml version="1.0" encoding="UTF-8" standalone="no"?>
<!-- Created with Inkscape (http://www.inkscape.org/) -->

<svg
   version="1.1"
   id="svg1"
   width="1000"
   height="1000"
   viewBox="0 0 1000 1000"
   sodipodi:docname="logo.svg"
   inkscape:version="1.3.2 (091e20e, 2023-11-25, custom)"
   xmlns:inkscape="http://www.inkscape.org/namespaces/inkscape"
   xmlns:sodipodi="http://sodipodi.sourceforge.net/DTD/sodipodi-0.dtd"
   xmlns="http://www.w3.org/2000/svg"
   xmlns:svg="http://www.w3.org/2000/svg">
  <defs
     id="defs1" />
  <sodipodi:namedview
     id="namedview1"
     pagecolor="#ffffff"
     bordercolor="#000000"
     borderopacity="0.25"
     inkscape:showpageshadow="2"
     inkscape:pageopacity="0.0"
     inkscape:pagecheckerboard="0"
     inkscape:deskcolor="#d1d1d1"
     inkscape:zoom="0.32456201"
     inkscape:cx="-80.107958"
     inkscape:cy="340.45882"
     inkscape:window-width="1366"
     inkscape:window-height="715"
     inkscape:window-x="-8"
     inkscape:window-y="-8"
     inkscape:window-maximized="1"
     inkscape:current-layer="g1" />
  <g
     inkscape:groupmode="layer"
     inkscape:label="Image"
     id="g1">
    <path
       style="fill:#10b981;fill-opacity:1;stroke-width:2.68696"
       d="m 350.2484,818.92718 c -0.86688,-2.25906 0.80338,-14.04806 3.71168,-26.19778 l 5.28784,-22.0904 44.9725,-45.03752 c 24.73488,-24.77064 47.3308,-46.29966 50.21318,-47.84224 7.79532,-4.17194 14.8799,-0.77198 29.49672,14.15572 20.4056,20.8396 20.6827,20.2406 -33.96278,73.4095 -40.81492,39.71208 -48.81576,46.30884 -59.78468,49.29308 -6.96498,1.89496 -15.44104,4.56396 -18.83568,5.93118 -9.32326,3.75498 -19.33076,2.98588 -21.09878,-1.62154 z m 33.5964,-16.10078 c 0.73894,-0.73894 -2.16374,-5.00432 -6.4504,-9.47862 -6.95394,-7.25834 -7.99842,-7.6173 -9.69134,-3.33068 -1.04356,2.64246 -1.98238,7.67614 -2.08624,11.18598 -0.1704,5.75994 0.64264,6.2152 8.3478,4.67416 4.69518,-0.93904 9.14126,-2.3119 9.88018,-3.05084 z m 48.16696,-36.97868 30.30998,-30.20316 -12.20766,-11.9809 -12.20766,-11.9809 -30.8366,30.74914 -30.83664,30.74916 11.27854,11.49198 c 6.2032,6.32062 11.93364,11.46632 12.73432,11.43494 0.80066,-0.0314 15.09524,-13.64852 31.76572,-30.26026 z m 46.72832,-46.67724 c 7.05082,-6.38088 6.25414,-8.9885 -6.23364,-20.40346 -10.60046,-9.68978 -11.39464,-9.96594 -16.18708,-5.62882 -2.77184,2.50848 -4.708,5.48914 -4.3026,6.6237 0.97134,2.71834 19.21864,23.71622 20.67768,23.79462 0.62254,0.0336 3.34308,-1.94024 6.04564,-4.38604 z m 65.91884,66.9185 c -1.9122,-6.32516 -11.45298,-41.91986 -19.6257,-73.21942 -3.66584,-14.03932 -7.3026,-27.64202 -8.08166,-30.2282 -1.20454,-3.99868 0.41962,-4.70216 10.85588,-4.70216 6.7498,0 12.27234,0.49108 12.27234,1.09132 0,3.06508 17.08534,67.93032 18.69122,70.96196 1.78538,3.37054 6.38702,-10.66526 17.6765,-53.91636 l 4.73414,-18.13692 h 10.19044 c 5.60474,0 10.91592,1.17386 11.80262,2.60856 0.88672,1.43472 5.25634,16.85112 9.71028,34.25864 8.90298,34.7958 11.85836,40.50666 14.8419,28.68 1.07916,-4.27776 5.14526,-20.4736 9.03578,-35.99074 l 7.07366,-28.213 11.2651,-0.82624 c 6.28776,-0.46116 11.26508,0.3641 11.26508,1.86778 0,1.4817 -4.23896,18.78128 -9.41992,38.44354 -5.18096,19.66228 -11.43806,43.96704 -13.90468,54.01058 l -4.48474,18.26106 -13.5502,-0.79586 -13.55022,-0.79586 -9.31056,-37.07658 c -5.1286,-20.42324 -10.15902,-35.50918 -11.19948,-33.5869 -1.65138,3.05084 -18.6235,67.55712 -18.6235,70.78266 0,0.67336 -5.90462,1.2243 -13.12138,1.2243 -10.16372,0 -13.4418,-1.0599 -14.5429,-4.70216 z M 685.17514,734.06794 V 677.3447 l 28.88474,1.05044 c 22.80542,0.82936 30.51704,2.13854 36.64042,6.22038 8.44184,5.6273 15.08338,18.68048 15.08338,29.64464 0,8.59962 -6.91968,22.34998 -14.2237,28.26438 -5.47222,4.43116 -5.44698,4.54264 5.70706,25.22156 6.16198,11.4239 11.2036,21.34868 11.2036,22.05512 0,0.7064 -5.66232,0.91584 -12.58294,0.4654 L 743.30478,789.44766 733.72034,770.639 C 725.11488,753.75146 723.244,751.74434 715.40336,750.98836 l -8.7326,-0.84198 v 20.32238 20.32238 h -10.7478 -10.74782 z M 728.5592,728.927 c 7.1589,-1.98846 10.26326,-4.57842 11.52806,-9.61784 2.8305,-11.27756 -0.57886,-16.82026 -12.28526,-19.97248 -17.03426,-4.58684 -19.66846,-3.0702 -20.6202,11.87216 -1.3588,21.33244 1.08194,23.3554 21.3774,17.71816 z m 58.7201,5.43816 V 677.9392 h 12.09128 12.09128 v 56.42596 56.42598 H 799.37058 787.2793 Z m 69.86072,10.74782 V 699.4348 H 842.3618 827.58356 V 688.687 677.9392 h 41.64774 41.64774 v 10.7478 10.7478 h -14.77822 -14.77824 v 45.67818 45.67816 H 869.2313 857.14002 Z m 69.86074,-10.74782 V 677.9392 h 36.27384 36.27384 v 10.64696 10.64698 l -24.8543,0.77256 -24.8543,0.77258 -0.82624,11.41954 -0.82624,11.41954 h 21.65012 21.6501 v 10.7478 10.74782 h -21.64282 -21.64284 l 0.81896,12.763 0.81896,12.76302 24.8543,0.77258 24.8543,0.77256 v 9.30352 9.30348 H 963.2746 927.00076 Z M 60.459002,691.14174 C 53.069886,690.27512 43.762354,688.2131 39.775596,686.5595 28.110586,681.7211 11.716164,665.29998 5.6353732,652.36366 0.13026698,640.65204 0.00259918,637.03766 0.00259918,492.89698 c 0,-163.59386 -0.6365548,-157.30592 18.01470182,-177.95062 5.407441,-5.9854 14.750705,-13.51552 20.762803,-16.7336 10.899076,-5.83392 11.43085,-5.85106 181.552496,-5.85106 155.5053,0 171.48534,0.40778 180.3731,4.6027 14.3679,6.78148 25.69228,17.21182 33.96394,31.2826 l 7.33644,12.47982 v 153.15622 153.15622 l -7.06764,10.7478 c -8.5406,12.98778 -16.30622,20.26356 -30.54968,28.62272 l -10.74782,6.30764 H 233.76736 c -87.93049,0 -165.919242,-0.70906 -173.308358,-1.57568 z M 394.41974,667.45288 c 13.43082,-6.88776 21.06136,-15.56326 25.9999,-29.56054 3.49182,-9.89694 4.12124,-32.08608 4.12124,-145.28964 0,-92.73958 -0.9354,-136.40262 -3.05802,-142.74234 -4.85174,-14.49088 -15.55626,-26.81492 -28.11732,-32.37126 -11.0783,-4.90048 -19.11414,-5.09978 -176.71094,-4.38288 l -165.10489,0.75108 -10.323586,8.21662 c -5.67797,4.51914 -13.044124,13.54152 -16.369226,20.04974 -6.034341,11.811 -6.045613,12.08688 -6.030655,147.62656 0.0094,85.11948 1.050614,139.52238 2.790209,145.78606 3.50351,12.61492 13.838782,24.99896 26.404776,31.63902 9.294276,4.91122 17.398568,5.15806 173.090152,5.27122 155.40028,0.1132 163.82388,-0.1298 173.30836,-4.99364 z M 88.671988,510.00474 V 436.11358 H 72.550282 56.428574 V 424.0223 411.93102 h 44.334696 44.33469 v 12.09128 12.09128 H 130.31973 115.5415 v 73.89116 73.89116 H 102.10674 88.671988 Z m 95.834602,72.09986 c -0.98523,-0.9852 -1.79131,-34.23622 -1.79131,-73.89116 V 436.11358 H 169.28052 155.84577 V 424.0223 411.93102 h 41.64775 41.64774 v 11.95086 11.95086 l -14.1065,0.81216 -14.1065,0.81216 -0.7149,73.21942 -0.71492,73.21942 h -11.6003 c -6.38014,0 -12.40635,-0.80608 -13.39155,-1.7913 z m 84.40563,-27.09342 c -1.74024,-14.40878 -4.25584,-33.45254 -5.59026,-42.31948 -1.33444,-8.86694 -3.67398,-25.79474 -5.199,-37.61732 -1.52504,-11.82258 -4.00152,-30.19112 -5.50334,-40.81896 -1.50182,-10.62786 -2.73056,-19.9986 -2.73056,-20.82386 0,-0.8253 5.85002,-1.50054 13.00006,-1.50054 h 13.0001 l 3.24392,27.54126 c 1.78416,15.14768 4.39802,35.63348 5.8086,45.52402 1.41054,9.8905 2.56464,21.75086 2.56464,26.35636 0,18.64174 4.92532,3.34866 10.57452,-32.83378 3.2953,-21.10618 7.18636,-44.72278 8.6468,-52.48136 l 2.6553,-14.1065 h 11.779 c 13.51936,0 11.1832,-6.11072 20.03106,52.39556 2.90534,19.2117 6.11422,39.0784 7.13076,44.14822 1.6675,8.31622 2.0595,8.64684 4.00776,3.38024 1.8153,-4.90726 13.09638,-88.57936 13.09638,-97.1363 0,-1.56184 6.03594,-2.78772 13.72606,-2.78772 13.54606,0 13.70234,0.0944 11.91824,7.2028 -0.99428,3.96156 -2.9351,16.35514 -4.31294,27.54126 -1.37784,11.18616 -3.72218,28.80234 -5.20966,39.1471 -4.34578,30.22336 -8.35588,60.58608 -10.29134,77.92158 l -1.79994,16.12172 -13.88408,0.80444 -13.8841,0.80444 -2.79218,-14.2392 c -1.5357,-7.83154 -4.13484,-22.09852 -5.77586,-31.70438 -1.64104,-9.60586 -4.05356,-22.3017 -5.3612,-28.21298 -1.3076,-5.9113 -3.23164,-16.79346 -4.2756,-24.18256 l -1.89814,-13.43476 -2.12014,10.7478 c -1.16606,5.9113 -5.25104,27.6756 -9.07768,48.36512 -3.82668,20.68952 -7.61408,40.94242 -8.41642,45.00644 -1.3714,6.9462 -2.31116,7.3891 -15.6778,7.3891 h -14.21896 z m 276.54146,45.00642 v -45.67816 h -16.1217 -16.1217 v -10.7478 -10.74782 h 42.99122 42.99122 v 10.74782 10.7478 h -14.77824 -14.77824 v 45.67816 45.67818 h -12.09128 -12.09128 z m 60.8097,19.62502 c 5.29662,-14.48832 10.60112,-29.36522 11.78776,-33.05976 1.1866,-3.69456 5.8928,-16.8788 10.4582,-29.29826 4.56536,-12.41948 8.30068,-23.06256 8.30068,-23.65124 0,-0.5887 6.24374,-0.7049 13.87492,-0.25822 l 13.87492,0.81216 7.34822,21.49562 c 4.04154,11.82258 11.80442,33.58688 17.25086,48.36512 16.63918,45.1483 16.3755,42.07964 3.53368,41.1234 -11.05718,-0.82336 -12.25288,-1.90886 -17.92064,-16.2691 -2.83452,-7.18172 -3.50578,-7.38912 -23.91432,-7.38912 h -20.99794 l -4.14948,11.41954 c -3.98932,10.97878 -4.63056,11.45106 -16.61332,12.2359 l -12.4638,0.81636 z M 665.0641,598.0024 c -1.03254,-2.5862 -3.79088,-10.74782 -6.12966,-18.13692 -7.15856,-22.6165 -9.05916,-22.90678 -15.96382,-2.43804 -8.59432,25.47778 -8.665,25.27712 8.90512,25.27712 13.27216,0 14.8422,-0.55978 13.18836,-4.70216 z m 55.04142,-8.7326 v -56.42598 h 12.09128 12.09128 v 45.67818 45.67816 h 22.83908 22.83908 v 10.74782 10.7478 h -34.93036 -34.93036 z m 88.66938,0 v -56.42598 h 10.7478 10.74782 v 24.18256 c 0,13.30042 0.90684,24.117 2.0152,24.03688 1.10838,-0.08 9.84564,-10.3577 19.41616,-22.83908 l 17.4009,-22.6934 h 12.8273 c 7.05498,0 12.82726,0.6082 12.82726,1.35154 0,0.74334 -8.4639,11.70588 -18.80866,24.36118 -10.34476,12.6553 -18.80866,24.30698 -18.80866,25.89256 0,2.72214 23.54062,33.23598 36.86444,47.78446 3.36972,3.67944 6.12678,7.60912 6.12678,8.73258 0,1.12348 -6.51924,2.04268 -14.48724,2.04268 h -14.4872 l -20.44316,-27.35266 -20.44312,-27.35268 v 27.35268 27.35266 H 819.5227 808.7749 Z M 545.45368,455.07674 v -45.83266 h -16.1217 -16.1217 v -10.7478 -10.74782 h 42.99122 42.99122 v 10.74782 10.7478 l -15.44998,-0.002 -15.44996,-0.002 v 45.00838 45.00836 l -11.41954,0.82624 -11.41956,0.82624 z m 69.86074,-10.9023 v -56.42598 h 12.09128 12.09128 v 22.8391 22.83908 h 24.18256 24.18256 v -22.83908 -22.8391 h 12.09128 12.09128 v 56.42598 56.42598 H 699.95338 687.8621 v -22.83908 -22.8391 h -24.18256 -24.18256 v 22.8391 22.83908 H 627.4057 615.31442 Z m 120.9128,0 v -56.42598 h 12.09128 12.09128 v 56.42598 56.42598 H 748.3185 736.22722 Z m 48.36512,0 v -56.42598 h 11.7118 11.7118 l 23.8903,36.21932 c 13.13968,19.92064 24.79716,36.24386 25.90552,36.27384 1.10836,0.0302 2.01522,-16.2687 2.01522,-36.21932 v -36.27384 h 10.7478 10.7478 v 56.42598 56.42598 H 869.41844 857.51428 L 836.5033,468.1008 c -32.98864,-51.02646 -30.22156,-50.49822 -30.32596,-5.78944 l -0.0894,38.28906 h -10.74782 -10.7478 z m 123.59976,0 v -56.42598 h 10.7478 10.7478 v 24.18256 c 0,13.30042 0.90686,24.11988 2.01522,24.04324 1.10836,-0.0766 10.3875,-10.95874 20.62034,-24.18256 l 18.60508,-24.04324 H 985.46418 1000 l -8.1324,10.07608 c -4.4728,5.54184 -14.20632,16.72626 -21.63002,24.8543 -7.4237,8.12802 -13.53874,16.28194 -13.589,18.11982 -0.0502,1.8379 9.49992,15.11746 21.2226,29.51016 22.81492,28.0114 23.12232,30.21516 4.21208,30.20158 -10.4482,-0.008 -11.27218,-0.71448 -29.55648,-25.36036 -10.34476,-13.94396 -19.7155,-25.4087 -20.82386,-25.47718 -1.10836,-0.0686 -2.01522,11.3622 -2.01522,25.40152 v 25.52604 H 918.9399 908.1921 Z M 476.15606,367.3545 c -1.4545,-2.59902 -1.03388,-12.07566 1.07392,-24.19682 3.40714,-19.59308 3.34414,-20.15734 -3.78828,-33.91852 -6.46816,-12.47954 -7.25306,-16.91236 -7.25306,-40.96174 0,-22.62418 0.98414,-28.96524 6.11022,-39.36912 8.67278,-17.60224 25.06858,-33.21786 44.40596,-42.29288 47.96246,-22.50883 102.75252,-4.04915 127.1325,42.83302 6.6675,12.82146 7.56212,17.41834 7.53768,38.7307 -0.0242,20.06648 -1.13602,26.46926 -6.53884,37.61732 -19.36784,39.96312 -70.33836,64.00006 -110.31482,52.02282 -9.1685,-2.74696 -12.35884,-2.19618 -31.21168,5.38832 -24.34464,9.79388 -24.02104,9.74444 -27.1536,4.1469 z m 32.52536,-23.6063 c 14.12738,-6.24782 14.78064,-6.29242 30.85014,-2.10578 35.53174,9.2572 73.29116,-8.4482 89.41478,-41.92662 8.96152,-18.60732 8.62818,-45.63342 -0.78668,-63.78008 -8.6037,-16.58316 -18.15618,-25.78166 -36.07456,-34.73766 -18.67984,-9.33666 -48.66274,-9.77181 -67.3712,-0.9778 -39.37724,18.5095 -55.16792,63.62792 -35.68618,101.96548 8.492,16.71118 9.65902,24.94322 5.56148,39.23056 -1.37468,4.79316 -2.01372,8.71486 -1.42012,8.71486 0.59364,0 7.57418,-2.87234 15.51234,-6.38296 z"
       id="path1"
       inkscape:export-filename="favicon.png"
       inkscape:export-xdpi="96"
       inkscape:export-ydpi="96" />
  </g>
</svg>
